# xmcd
#
# Track frame offsets: 
#        150
#        10932
#        27447
#        51555
#        64222
#        79395
#        100407
#        112952
#        135635
#        152672
#        175710
#        178512
#        213187
#        230740
#        246620
#
# Disc length: 3548 seconds
#
# Revision: 20
# Processed by: cddbd v1.5.2PL0 Copyright (c) Steve Scherf et al.
# Submitted via: ExactAudioCopyFreeDBPlugin 1.0
#
DISCID=d30dda0f
DTITLE=Stevie Ray Vaughan and Double Trouble - The Perfect Blues Collect
DTITLE=ion [disc 22] Stevie Ray Vaughan and Double Trouble^ Texas Flood
DYEAR=2011
DGENRE=Blues
TTITLE0=Love Struck Baby
TTITLE1=Pride and Joy
TTITLE2=Texas Flood
TTITLE3=Tell Me
TTITLE4=Testify
TTITLE5=Rude Mood
TTITLE6=Mary Had a Little Lamb
TTITLE7=Dirty Pool
TTITLE8=I'm Cryin'
TTITLE9=Lenny
TTITLE10=SRV Speaks
TTITLE11=Tin Pan Alley (aka Roughest Place in Town)
TTITLE12=Testify [live]
TTITLE13=Mary Had a Little Lamb [live]
TTITLE14=Wham! [live]
EXTD=YEAR: 1983
EXTT0=
EXTT1=
EXTT2=
EXTT3=
EXTT4=
EXTT5=
EXTT6=
EXTT7=
EXTT8=
EXTT9=
EXTT10=
EXTT11=
EXTT12=
EXTT13=
EXTT14=
PLAYORDER=
